<svg width="18" height="12" viewBox="0 0 18 12" fill="none" xmlns="http://www.w3.org/2000/svg">
<path d="M1.15317 7.9224C1.94716 3.9924 5.26635 1.2 9 1.2C12.7325 1.2 16.0517 3.9924 16.8468 7.9224C16.8783 8.07835 16.9686 8.21501 17.0979 8.30233C17.2271 8.38965 17.3848 8.42046 17.5361 8.388C17.6874 8.35554 17.8199 8.26246 17.9047 8.12923C17.9894 7.996 18.0193 7.83355 17.9878 7.6776C17.0832 3.2076 13.2995 0 9 0C4.70054 0 0.916829 3.2076 0.0122309 7.6776C-0.0192636 7.83355 0.0106344 7.996 0.0953477 8.12923C0.180061 8.26246 0.312651 8.35554 0.463948 8.388C0.615245 8.42046 0.772857 8.38965 0.90211 8.30233C1.03136 8.21501 1.12167 8.07835 1.15317 7.9224V7.9224ZM8.98836 3.6C10.0691 3.6 11.1055 4.0425 11.8697 4.83015C12.6338 5.6178 13.0631 6.68609 13.0631 7.8C13.0631 8.91391 12.6338 9.9822 11.8697 10.7698C11.1055 11.5575 10.0691 12 8.98836 12C7.90766 12 6.87123 11.5575 6.10706 10.7698C5.3429 9.9822 4.91359 8.91391 4.91359 7.8C4.91359 6.68609 5.3429 5.6178 6.10706 4.83015C6.87123 4.0425 7.90766 3.6 8.98836 3.6V3.6Z" fill="#ACB5BB"/>
</svg>
